<svg width="25" height="24" viewBox="0 0 25 24" fill="none" xmlns="http://www.w3.org/2000/svg">
<path d="M17.2727 3C18.6137 3 19.9037 3.53 20.8527 4.481C21.8027 5.43 22.3337 6.71 22.3337 8.05V15.95C22.3337 18.74 20.0637 21 17.2727 21H7.39374C4.60274 21 2.33374 18.74 2.33374 15.95V8.05C2.33374 5.26 4.59274 3 7.39374 3H17.2727ZM18.4037 8.2C18.1937 8.189 17.9937 8.26 17.8427 8.4L13.3337 12C12.7537 12.481 11.9227 12.481 11.3337 12L6.83374 8.4C6.52274 8.17 6.09274 8.2 5.83374 8.47C5.56374 8.74 5.53374 9.17 5.76274 9.47L5.89374 9.6L10.4437 13.15C11.0037 13.59 11.6827 13.83 12.3937 13.83C13.1027 13.83 13.7937 13.59 14.3527 13.15L18.8637 9.54L18.9437 9.46C19.1827 9.17 19.1827 8.75 18.9327 8.46C18.7937 8.311 18.6027 8.22 18.4037 8.2Z" />
</svg>