<svg width="25" height="24" viewBox="0 0 25 24" fill="none" xmlns="http://www.w3.org/2000/svg">
<path d="M9.96809 20.7733V17.7156C9.96809 16.9351 10.6055 16.3023 11.3917 16.3023H14.2659C14.6435 16.3023 15.0056 16.4512 15.2726 16.7163C15.5396 16.9813 15.6896 17.3408 15.6896 17.7156V20.7733C15.6872 21.0978 15.8154 21.4099 16.0457 21.6402C16.276 21.8705 16.5894 22 16.9163 22H18.8771C19.7929 22.0023 20.6721 21.6428 21.3205 21.0008C21.9689 20.3588 22.3333 19.487 22.3333 18.5778V9.86686C22.3333 9.13246 22.0054 8.43584 21.4379 7.96467L14.7673 2.67587C13.607 1.74856 11.9444 1.7785 10.8187 2.74698L4.30033 7.96467C3.70605 8.42195 3.35087 9.12064 3.33331 9.86686V18.5689C3.33331 20.4639 4.88069 22 6.78949 22H8.7056C9.38454 22 9.93631 21.4562 9.94123 20.7822L9.96809 20.7733Z" />
</svg>
