<svg width="25" height="24" viewBox="0 0 25 24" fill="none" xmlns="http://www.w3.org/2000/svg">
<path d="M12.4999 2.00009C18.0199 2.00009 22.4999 6.48009 22.4999 12.0001C22.4999 17.5301 18.0199 22.0001 12.4999 22.0001C6.96988 22.0001 2.49988 17.5301 2.49988 12.0001C2.49988 6.48009 6.96988 2.00009 12.4999 2.00009ZM16.3499 8.71009C16.4599 8.36009 16.1399 8.03009 15.7899 8.14009L10.6699 9.74009C10.4599 9.81009 10.2899 9.97009 10.2299 10.1801L8.62988 15.3101C8.51988 15.6501 8.84988 15.9801 9.18988 15.8701L14.2899 14.2701C14.4999 14.2101 14.6699 14.0401 14.7299 13.8301L16.3499 8.71009Z"/>
</svg>
